<svg xmlns="http://www.w3.org/2000/svg" viewBox="0 0 94.2 100.2"><path d="M83.8 58.2L75.5 50l8.2-8.2c.5-.5.7-1.1.7-1.8s-.3-1.3-.7-1.8c-1-1-2.6-1-3.5 0L72 46.5l-8.2-8.2c-1-1-2.6-1-3.5 0-.5.5-.7 1.1-.7 1.8s.3 1.3.7 1.8l8.2 8.2-8.2 8.2c-.5.5-.7 1.1-.7 1.8s.3 1.3.7 1.8c.9.9 2.6.9 3.5 0l8.2-8.2 8.2 8.2c.5.5 1.1.7 1.8.7s1.3-.3 1.8-.7c.5-.5.7-1.1.7-1.8s-.3-1.4-.7-1.9zM51.6 10.8c-.9-.4-1.9-.3-2.6.2L22.9 30.6H8.2c-1.4 0-2.5 1.1-2.5 2.5v34c0 1.4 1.1 2.5 2.5 2.5h14.7L49 89c.4.3 1 .5 1.5.5.4 0 .8-.1 1.1-.3.9-.4 1.4-1.2 1.4-2.2V13c0-1-.5-1.8-1.4-2.2zM48 82L25.2 65c-.4-.3-1-.5-1.5-.5h-13v-29h13c.5 0 1.1-.2 1.5-.5L48 18v64z" fill="#fff"/></svg>