<svg xmlns="http://www.w3.org/2000/svg" id="Layer_1" x="0" y="0" viewBox="0 0 81.9 78.8" xml:space="preserve"><style>.st0{fill:#ff4800}</style><path class="st0" d="M40.2 78.8C18 78.8 0 61.1 0 39.4S18 0 40.2 0C49 0 57.4 2.8 64.5 8.1c1.4 1 1.7 3 .6 4.4-1 1.4-3 1.7-4.4.6-6-4.5-13.1-6.8-20.6-6.8C21.5 6.2 6.2 21.1 6.2 39.4s15.2 33.1 33.9 33.1S74 57.6 74 39.4c0-2.6-.3-5-.8-7.4-.4-1.7.6-3.4 2.3-3.8 1.7-.4 3.4.6 3.8 2.3.7 2.8 1 5.8 1 8.8 0 21.8-18 39.5-40.1 39.5z"/><path class="st0" d="M39.4 58.3c-.8 0-1.6-.3-2.2-.9L15.9 36.1c-1.2-1.2-1.2-3.2 0-4.4 1.2-1.2 3.2-1.2 4.4 0l19 19L76.5 8.9c1.1-1.3 3.1-1.4 4.4-.2 1.3 1.1 1.4 3.1.2 4.4L41.7 57.2c-.6.7-1.4 1-2.3 1.1z"/></svg>