<svg version="1.1" id="Layer_1" xmlns="http://www.w3.org/2000/svg" x="0" y="0" viewBox="0 0 100.2 100.2" xml:space="preserve"><style>.st0{fill:#fff}</style><path class="st0" d="M59.1 10.8c-.8-.4-1.8-.4-2.6.2L29.3 30.6H14c-1.4 0-2.5 1.1-2.5 2.5v34c0 1.4 1.1 2.5 2.5 2.5h15.3L56.5 89c.4.3.9.5 1.5.5.4 0 .8-.1 1.1-.3.8-.4 1.4-1.3 1.4-2.2V13c0-.9-.5-1.8-1.4-2.2zm-3.6 7.1v64.3L31.6 65c-.4-.3-.9-.5-1.5-.5H16.5v-29h13.6c.5 0 1-.2 1.5-.5l23.9-17.1zm16.3 15c-.6-.3-1.2-.4-1.9-.3-.6.2-1.2.6-1.5 1.1-.3.6-.4 1.2-.3 1.9.2.6.6 1.2 1.1 1.5 3.5 2 5.8 7.2 5.8 12.9s-2.2 10.7-5.7 12.8c-1.2.7-1.6 2.3-.8 3.4.5.7 1.3 1.2 2.1 1.2.5 0 .9-.1 1.3-.4 4.9-3 8.1-9.7 8.1-17.1 0-7.3-3.2-14.1-8.2-17z"/><path class="st0" d="M80.6 23.1c-1-.9-2.6-.8-3.5.3-.9 1-.8 2.6.3 3.5 5.7 5 9.1 13.5 9.1 22.8 0 9.1-3.3 17.5-8.8 22.5-1 .9-1.1 2.5-.2 3.5.5.5 1.1.8 1.8.8.6 0 1.2-.2 1.7-.7 6.5-5.9 10.4-15.7 10.4-26.2.1-10.7-4-20.6-10.8-26.5z"/></svg>