<?xml version="1.0" encoding="utf-8"?>
<!-- Generator: Adobe Illustrator 23.0.2, SVG Export Plug-In . SVG Version: 6.00 Build 0)  -->
<svg version="1.1" id="Layer_1" xmlns="http://www.w3.org/2000/svg" xmlns:xlink="http://www.w3.org/1999/xlink" x="0px" y="0px"
	 viewBox="0 0 94.2 100.2" style="enable-background:new 0 0 94.2 100.2;" xml:space="preserve">
<style type="text/css">
	.st0{fill:#FFFFFF;}
</style>
<path class="st0" d="M83.8,58.2L75.5,50l8.2-8.2c0.5-0.5,0.7-1.1,0.7-1.8s-0.3-1.3-0.7-1.8c-1-1-2.6-1-3.5,0L72,46.5l-8.2-8.2
	c-1-1-2.6-1-3.5,0c-0.5,0.5-0.7,1.1-0.7,1.8s0.3,1.3,0.7,1.8l8.2,8.2l-8.2,8.2c-0.5,0.5-0.7,1.1-0.7,1.8s0.3,1.3,0.7,1.8
	c0.9,0.9,2.6,0.9,3.5,0l8.2-8.2l8.2,8.2c0.5,0.5,1.1,0.7,1.8,0.7s1.3-0.3,1.8-0.7c0.5-0.5,0.7-1.1,0.7-1.8S84.2,58.7,83.8,58.2z"/>
<path class="st0" d="M51.6,10.8L51.6,10.8c-0.9-0.4-1.9-0.3-2.6,0.2L22.9,30.6H8.2c-1.4,0-2.5,1.1-2.5,2.5v34c0,1.4,1.1,2.5,2.5,2.5
	h14.7L49,89c0.4,0.3,1,0.5,1.5,0.5c0.4,0,0.8-0.1,1.1-0.3C52.5,88.8,53,88,53,87V13C53,12,52.5,11.2,51.6,10.8z M48,82L25.2,65
	c-0.4-0.3-1-0.5-1.5-0.5h-13v-29h13c0.5,0,1.1-0.2,1.5-0.5L48,18V82z"/>
</svg>
