<?xml version="1.0" encoding="UTF-8"?> <!-- Generator: Adobe Illustrator 23.0.2, SVG Export Plug-In . SVG Version: 6.00 Build 0) --> <svg xmlns="http://www.w3.org/2000/svg" xmlns:xlink="http://www.w3.org/1999/xlink" id="Layer_1" x="0px" y="0px" viewBox="0 0 81.9 78.8" style="enable-background:new 0 0 81.9 78.8;" xml:space="preserve"> <style type="text/css"> .st0{fill:#FF4800;} </style> <path class="st0" d="M40.2,78.8C18,78.8,0,61.1,0,39.4C0,17.7,18,0,40.2,0C49,0,57.4,2.8,64.5,8.1c1.4,1,1.7,3,0.6,4.4 c-1,1.4-3,1.7-4.4,0.6c-6-4.5-13.1-6.8-20.6-6.8C21.5,6.2,6.2,21.1,6.2,39.4c0,18.3,15.2,33.1,33.9,33.1c18.7,0,33.9-14.9,33.9-33.1 c0-2.6-0.3-5-0.8-7.4c-0.4-1.7,0.6-3.4,2.3-3.8c1.7-0.4,3.4,0.6,3.8,2.3c0.7,2.8,1,5.8,1,8.8C80.3,61.1,62.3,78.8,40.2,78.8z"></path> <path class="st0" d="M39.4,58.3c-0.8,0-1.6-0.3-2.2-0.9L15.9,36.1c-1.2-1.2-1.2-3.2,0-4.4c1.2-1.2,3.2-1.2,4.4,0l19,19L76.5,8.9 c1.1-1.3,3.1-1.4,4.4-0.2c1.3,1.1,1.4,3.1,0.2,4.4L41.7,57.2C41.1,57.9,40.3,58.2,39.4,58.3C39.4,58.3,39.4,58.3,39.4,58.3z"></path> </svg> 