<?xml version="1.0" encoding="utf-8"?>
<!-- Generator: Adobe Illustrator 23.0.2, SVG Export Plug-In . SVG Version: 6.00 Build 0)  -->
<svg version="1.1" id="Layer_1" xmlns="http://www.w3.org/2000/svg" xmlns:xlink="http://www.w3.org/1999/xlink" x="0px" y="0px"
	 viewBox="0 0 100.2 100.2" style="enable-background:new 0 0 100.2 100.2;" xml:space="preserve">
<style type="text/css">
	.st0{fill:#FFFFFF;}
</style>
<g>
	<path class="st0" d="M59.1,10.8c-0.8-0.4-1.8-0.4-2.6,0.2L29.3,30.6H14c-1.4,0-2.5,1.1-2.5,2.5v34c0,1.4,1.1,2.5,2.5,2.5h15.3
		L56.5,89c0.4,0.3,0.9,0.5,1.5,0.5c0.4,0,0.8-0.1,1.1-0.3c0.8-0.4,1.4-1.3,1.4-2.2V13C60.5,12.1,60,11.2,59.1,10.8z M55.5,17.9v64.3
		L31.6,65c-0.4-0.3-0.9-0.5-1.5-0.5H16.5v-29h13.6c0.5,0,1-0.2,1.5-0.5L55.5,17.9z"/>
	<path class="st0" d="M71.8,32.9c-0.6-0.3-1.2-0.4-1.9-0.3c-0.6,0.2-1.2,0.6-1.5,1.1c-0.3,0.6-0.4,1.2-0.3,1.9
		c0.2,0.6,0.6,1.2,1.1,1.5c3.5,2,5.8,7.2,5.8,12.9s-2.2,10.7-5.7,12.8c-1.2,0.7-1.6,2.3-0.8,3.4c0.5,0.7,1.3,1.2,2.1,1.2
		c0.5,0,0.9-0.1,1.3-0.4c4.9-3,8.1-9.7,8.1-17.1C80,42.6,76.8,35.8,71.8,32.9z"/>
	<path class="st0" d="M80.6,23.1c-1-0.9-2.6-0.8-3.5,0.3c-0.9,1-0.8,2.6,0.3,3.5c5.7,5,9.1,13.5,9.1,22.8c0,9.1-3.3,17.5-8.8,22.5
		c-1,0.9-1.1,2.5-0.2,3.5c0.5,0.5,1.1,0.8,1.8,0.8c0.6,0,1.2-0.2,1.7-0.7c6.5-5.9,10.4-15.7,10.4-26.2C91.5,38.9,87.4,29,80.6,23.1z
		"/>
</g>
</svg>
